<svg width="161" height="160" viewBox="0 0 161 160" fill="none" xmlns="http://www.w3.org/2000/svg">
<g id="silhouette-male" clip-path="url(#clip0_760_33836)">
<path id="Vector" d="M0 160C0.911616 156.277 1.9981 152.601 3.31966 148.959C2.91545 146.448 4.58675 143.749 5.62736 141.535C6.84285 138.944 8.23321 136.437 9.7841 134.02C18.476 120.532 36.5764 115.528 50.2019 108.24C53.9201 106.255 55.8752 102.416 59.5388 100.487C60.9206 100.833 61.6401 100.528 61.577 98.9283C61.4738 96.1686 62.2708 92.6949 61.0954 90.1096C60.7056 89.2405 60.1724 88.424 59.7682 87.5521C59.2779 86.4947 58.9913 85.3598 58.6989 84.2416C58.4065 83.0929 58.2316 81.792 57.6496 80.7734C57.0218 79.6662 56.136 78.7611 55.5139 77.6539C54.8489 76.4803 54.1293 75.3538 53.3668 74.2411C52.0681 72.345 52.395 70.2137 51.641 68.2014C50.7953 65.9483 50.4255 63.8917 53.7595 63.352C53.3811 63.352 52.5784 54.9043 52.4953 54.0822C52.1456 50.4119 52.1226 46.4288 54.0175 43.1045C54.5708 42.1247 55.0151 41.1006 55.4566 40.0737C56.2822 38.1499 57.0992 36.1958 58.4953 34.5765C60.6482 32.0937 63.5006 30.1894 66.5967 28.9742C71.473 27.0588 76.8824 26.7405 82.1228 27.1668C84.9522 27.402 87.8534 27.8754 90.227 29.359C91.3966 30.0897 92.2394 31.0723 93.2887 31.9165C94.1286 32.5975 95.1979 32.7525 96.0923 33.3808C99.1224 35.5066 100.926 39.2654 102.121 42.5897C103.142 45.4241 103.597 48.4134 103.812 51.4083C103.939 53.13 104.065 54.8627 104.05 56.5899C104.036 57.9545 104.245 59.6014 103.379 60.775C102.451 62.0289 102.241 62.8122 103.729 63.4378C105.1 64.0191 106.243 64.9989 106.272 66.5351C106.315 68.9322 104.945 72.0073 104.007 74.194C103.03 76.4748 101.625 79.0047 99.2285 80.1451C98.529 80.4744 98.2509 83.45 98.0761 84.153C97.7951 85.299 97.1874 86.2705 97.1817 87.4718C97.1731 88.5513 97.2218 89.6391 97.1473 90.7435C96.9724 93.1322 96.8032 95.6427 97.97 97.8488C99.2084 100.204 102.562 100.636 104.867 101.406C105.79 101.707 106.496 101.414 106.754 100.528C107.333 98.5435 110.681 101.74 111.249 102.363C111.888 103.066 112.49 103.805 113.218 104.428C120.801 110.891 133.351 109.972 141.533 116.369C150.262 123.192 156.207 136.517 157.816 147.124C158.4 151.001 159.997 155.879 160 160H0Z" fill="#010B03"/>
</g>
<defs>
<clipPath id="clip0_760_33836">
<rect width="160" height="160" fill="white" transform="translate(0.5)"/>
</clipPath>
</defs>
</svg>
