<svg width="36" height="36" viewBox="0 0 36 36" fill="none" xmlns="http://www.w3.org/2000/svg">
<path d="M33.75 18C33.7536 18.4614 33.6133 18.9125 33.3487 19.2906C33.084 19.6686 32.7082 19.9548 32.2734 20.1094L23.3522 23.3536L20.1094 32.2734C19.9495 32.704 19.6618 33.0754 19.2847 33.3376C18.9076 33.5999 18.4593 33.7405 18 33.7405C17.5407 33.7405 17.0924 33.5999 16.7153 33.3376C16.3382 33.0754 16.0504 32.704 15.8906 32.2734L12.6464 23.3437L3.72655 20.1094C3.29596 19.9495 2.92459 19.6618 2.66234 19.2847C2.40009 18.9076 2.25952 18.4593 2.25952 18C2.25952 17.5407 2.40009 17.0924 2.66234 16.7153C2.92459 16.3382 3.29596 16.0504 3.72655 15.8906L12.6562 12.6464L15.8906 3.72655C16.0504 3.29596 16.3382 2.92459 16.7153 2.66234C17.0924 2.40009 17.5407 2.25952 18 2.25952C18.4593 2.25952 18.9076 2.40009 19.2847 2.66234C19.6618 2.92459 19.9495 3.29596 20.1094 3.72655L23.3536 12.6562L32.2734 15.8906C32.7082 16.0452 33.084 16.3314 33.3487 16.7094C33.6133 17.0875 33.7536 17.5386 33.75 18Z" fill="#49FA70"/>
</svg>
