<svg width="67" height="67" viewBox="0 0 67 67" fill="none" xmlns="http://www.w3.org/2000/svg">
<path d="M66.9999 33.5C67.0075 34.4821 66.709 35.4421 66.146 36.2467C65.583 37.0512 64.7834 37.6603 63.8583 37.9893L44.8772 44.8939L37.9777 63.8778C37.6377 64.7942 37.0254 65.5846 36.2231 66.1427C35.4208 66.7008 34.467 67 33.4898 67C32.5126 67 31.5587 66.7008 30.7565 66.1427C29.9542 65.5846 29.3419 64.7942 29.0018 63.8778L22.0994 44.873L3.12129 37.9893C2.20514 37.6492 1.41501 37.0367 0.857041 36.2342C0.299073 35.4316 0 34.4775 0 33.5C0 32.5225 0.299073 31.5684 0.857041 30.7658C1.41501 29.9633 2.20514 29.3508 3.12129 29.0107L22.1203 22.1061L29.0018 3.12225C29.3419 2.20582 29.9542 1.41544 30.7565 0.857303C31.5587 0.299164 32.5126 0 33.4898 0C34.467 0 35.4208 0.299164 36.2231 0.857303C37.0254 1.41544 37.6377 2.20582 37.9777 3.12225L44.8802 22.127L63.8583 29.0107C64.7834 29.3397 65.583 29.9488 66.146 30.7533C66.709 31.5579 67.0075 32.5179 66.9999 33.5Z" fill="#49FA70"/>
</svg>
