<svg width="20" height="20" viewBox="0 0 20 20" fill="none" xmlns="http://www.w3.org/2000/svg">
<path d="M11.6667 6.66675H3.33335C2.41419 6.66675 1.66669 7.41425 1.66669 8.33341V16.6667C1.66669 17.5859 2.41419 18.3334 3.33335 18.3334H11.6667C12.5859 18.3334 13.3334 17.5859 13.3334 16.6667V8.33341C13.3334 7.41425 12.5859 6.66675 11.6667 6.66675Z" fill="#F3F3F3"/>
<path d="M16.6667 1.66675H8.33335C7.89133 1.66675 7.4674 1.84234 7.15484 2.1549C6.84228 2.46746 6.66669 2.89139 6.66669 3.33341V5.00008H13.3334C13.7754 5.00008 14.1993 5.17568 14.5119 5.48824C14.8244 5.8008 15 6.22472 15 6.66675V13.3334H16.6667C17.1087 13.3334 17.5326 13.1578 17.8452 12.8453C18.1578 12.5327 18.3334 12.1088 18.3334 11.6667V3.33341C18.3334 2.89139 18.1578 2.46746 17.8452 2.1549C17.5326 1.84234 17.1087 1.66675 16.6667 1.66675Z" fill="#F3F3F3"/>
</svg>
