<svg width="26" height="26" viewBox="0 0 26 26" fill="none" xmlns="http://www.w3.org/2000/svg">
<path d="M13 8.9375C13 10.0149 12.572 11.0483 11.8101 11.8101C11.0483 12.572 10.0149 13 8.9375 13C7.86006 13 6.82675 12.572 6.06488 11.8101C5.30301 11.0483 4.875 10.0149 4.875 8.9375C4.875 7.86006 5.30301 6.82675 6.06488 6.06488C6.82675 5.30301 7.86006 4.875 8.9375 4.875C10.0149 4.875 11.0483 5.30301 11.8101 6.06488C12.572 6.82675 13 7.86006 13 8.9375ZM18.6875 13C19.5495 13 20.3761 12.6576 20.9856 12.0481C21.5951 11.4386 21.9375 10.612 21.9375 9.75C21.9375 8.88805 21.5951 8.0614 20.9856 7.4519C20.3761 6.84241 19.5495 6.5 18.6875 6.5C17.8255 6.5 16.9989 6.84241 16.3894 7.4519C15.7799 8.0614 15.4375 8.88805 15.4375 9.75C15.4375 10.612 15.7799 11.4386 16.3894 12.0481C16.9989 12.6576 17.8255 13 18.6875 13ZM17.0625 17.2153V17.0625C17.0637 16.1833 16.7785 15.3276 16.25 14.625H21.5686C22.6671 14.625 23.5592 15.5155 23.5592 16.6156C23.5592 16.6156 23.5592 20.3125 18.6842 20.3125C17.7125 20.3125 16.9341 20.1663 16.3118 19.9306C16.6999 19.2194 16.9466 18.4396 17.0381 17.6345C17.0479 17.5338 17.0544 17.4476 17.0576 17.3761L17.0625 17.2153ZM15.4375 17.0625C15.4375 16.416 15.1807 15.796 14.7236 15.3389C14.2665 14.8818 13.6465 14.625 13 14.625H4.875C4.22853 14.625 3.60855 14.8818 3.15143 15.3389C2.69431 15.796 2.4375 16.416 2.4375 17.0625V17.1844C2.4375 17.1844 2.4375 21.9375 8.9375 21.9375C15.132 21.9375 15.4229 17.6215 15.4375 17.2153V17.0625Z" fill="#49FA70"/>
</svg>
